<?xml version="1.0" encoding="UTF-8" ?>
<!DOCTYPE svg PUBLIC "-//W3C//DTD SVG 1.1//EN" "http://www.w3.org/Graphics/SVG/1.1/DTD/svg11.dtd">
<svg width="1989pt" height="787pt" viewBox="0 0 1989 787" version="1.1" xmlns="http://www.w3.org/2000/svg">
<g id="#ffffffff">
<path fill="#ffffff" opacity="1.00" d=" M 450.25 0.00 L 460.03 0.00 C 493.94 1.24 527.88 7.04 559.54 19.49 C 592.46 32.21 622.58 51.71 648.47 75.62 C 692.43 116.12 723.20 169.38 742.11 225.73 C 754.39 262.43 761.56 300.71 764.91 339.22 C 757.28 336.27 748.61 336.61 741.18 339.99 C 739.63 322.52 737.19 305.12 733.80 287.91 C 722.04 227.93 697.72 169.64 658.84 122.11 C 637.11 95.70 610.76 72.97 580.93 56.18 C 543.88 35.22 501.41 24.75 458.98 23.79 C 418.39 22.66 377.27 29.39 340.05 45.94 C 310.25 59.08 283.24 78.20 260.19 101.14 C 216.32 145.02 187.65 202.34 172.19 262.02 C 161.58 303.13 157.08 345.65 156.71 388.05 C 149.11 385.18 140.46 385.33 133.05 388.72 C 133.43 339.24 139.22 289.57 153.16 242.00 C 163.45 206.81 178.31 172.89 197.75 141.78 C 228.43 92.51 272.41 50.87 325.26 26.31 C 364.21 8.09 407.39 0.04 450.25 0.00 Z" />
<path fill="#ffffff" opacity="1.00" d=" M 1323.52 8.33 C 1331.40 8.30 1339.28 8.33 1347.16 8.31 C 1347.19 263.54 1347.17 518.78 1347.17 774.01 C 1339.29 774.01 1331.41 774.01 1323.53 774.01 C 1323.53 726.04 1323.52 678.08 1323.53 630.11 C 1322.48 630.11 1321.45 630.11 1320.44 630.13 C 1310.42 662.53 1294.46 693.34 1272.10 718.98 C 1248.71 746.09 1218.04 767.18 1183.74 777.80 C 1165.69 783.60 1146.75 785.66 1127.92 786.83 C 1119.61 787.15 1111.38 785.79 1103.11 785.25 C 1068.34 781.95 1034.56 768.58 1007.28 746.71 C 979.56 724.93 957.69 696.29 942.01 664.84 C 917.44 615.68 906.31 560.68 904.49 506.01 C 903.18 466.80 906.05 427.31 914.95 389.04 C 922.46 356.83 934.19 325.45 950.96 296.88 C 966.47 270.47 986.76 246.72 1011.24 228.23 C 1033.73 211.11 1060.31 199.44 1088.14 194.50 C 1131.69 186.80 1178.16 192.54 1217.21 213.86 C 1250.48 231.69 1277.95 259.51 1297.00 291.97 C 1307.08 309.04 1314.62 327.49 1320.53 346.38 C 1321.27 346.41 1322.76 346.49 1323.51 346.52 C 1323.54 233.79 1323.52 121.06 1323.52 8.33 M 1106.54 215.82 C 1085.85 217.82 1065.49 223.64 1047.11 233.37 C 1024.77 245.14 1005.61 262.32 989.82 281.89 C 971.86 304.26 958.57 330.08 948.93 357.02 C 936.40 391.97 930.11 428.95 928.39 465.98 C 925.74 524.72 933.01 584.83 956.55 639.11 C 971.20 673.14 992.90 704.62 1022.02 727.83 C 1045.58 746.89 1074.80 758.63 1104.92 761.64 C 1129.00 764.11 1153.66 762.40 1176.88 755.35 C 1205.41 746.91 1230.65 729.48 1250.75 707.77 C 1272.97 684.04 1289.19 655.22 1300.57 624.89 C 1316.18 583.48 1322.90 539.11 1323.48 494.98 C 1324.09 450.75 1318.82 406.11 1304.68 364.06 C 1293.92 332.14 1278.23 301.51 1256.09 275.95 C 1236.71 253.53 1212.40 234.78 1184.28 224.80 C 1159.51 215.83 1132.68 213.35 1106.54 215.82 Z" />
<path fill="#ffffff" opacity="1.00" d=" M 1677.41 205.49 C 1713.84 191.02 1754.33 187.95 1792.82 194.60 C 1825.63 200.27 1856.60 214.73 1883.00 234.88 C 1909.96 255.43 1932.14 281.95 1948.73 311.45 C 1965.68 341.70 1977.15 374.95 1983.12 409.09 C 1986.71 429.08 1988.08 449.39 1989.00 469.65 L 1989.00 487.27 C 1839.16 487.28 1689.32 487.28 1539.48 487.27 C 1539.63 527.28 1545.59 567.45 1558.85 605.28 C 1569.28 635.26 1584.27 663.86 1604.70 688.27 C 1624.69 712.03 1649.25 732.45 1677.73 745.19 C 1708.09 758.90 1741.85 763.71 1774.96 762.56 C 1798.42 761.78 1822.07 758.12 1843.86 749.12 C 1855.07 744.43 1865.63 738.33 1875.86 731.80 C 1889.94 722.65 1903.05 711.88 1914.16 699.25 C 1925.43 686.50 1936.45 673.40 1945.41 658.89 C 1951.93 663.33 1958.43 667.80 1964.95 672.25 C 1954.04 690.33 1940.15 706.39 1925.63 721.64 C 1912.01 735.73 1896.12 747.49 1879.21 757.32 C 1866.63 764.57 1853.59 771.15 1839.74 775.61 C 1820.13 782.12 1799.53 785.02 1778.96 786.16 C 1766.00 787.82 1753.00 786.14 1740.08 785.17 C 1728.17 784.04 1716.35 782.07 1704.76 779.16 C 1673.91 771.56 1645.00 756.72 1620.43 736.64 C 1596.74 717.56 1576.83 693.95 1561.37 667.80 C 1542.02 635.12 1529.07 598.81 1522.22 561.51 C 1515.11 522.47 1514.05 482.40 1518.18 442.97 C 1522.23 405.38 1532.00 368.28 1548.33 334.13 C 1562.14 305.06 1580.33 277.90 1603.21 255.19 C 1624.46 234.11 1649.48 216.51 1677.41 205.49 M 1717.92 218.43 C 1683.78 225.04 1652.44 242.57 1626.88 265.86 C 1601.54 288.72 1581.78 317.31 1567.35 348.13 C 1550.35 384.19 1541.85 423.85 1539.87 463.57 C 1681.68 463.72 1823.50 463.61 1965.32 463.62 C 1964.37 429.31 1958.41 394.99 1946.24 362.83 C 1934.88 332.90 1918.67 304.62 1897.27 280.72 C 1876.18 257.31 1850.24 237.71 1820.58 226.58 C 1788.02 214.38 1752.00 211.86 1717.92 218.43 Z" />
<path fill="#ffffff" opacity="1.00" d=" M 516.90 370.86 C 558.60 363.21 600.59 356.40 642.99 354.32 C 687.92 351.71 733.22 355.74 777.02 366.06 C 813.04 374.75 847.66 389.27 878.97 409.11 C 885.65 413.40 892.16 417.98 898.28 423.06 C 857.47 394.29 808.94 378.11 759.87 370.69 C 712.31 362.91 663.69 363.15 615.89 368.64 C 529.17 378.31 444.98 402.39 358.94 416.10 C 336.40 419.77 313.76 422.85 291.03 425.15 C 261.77 428.03 232.28 429.78 202.91 427.68 C 150.45 424.13 98.14 411.74 51.09 387.91 C 32.98 378.78 15.52 368.02 0.48 354.34 C 4.93 357.27 8.90 360.88 13.36 363.80 C 37.75 380.78 65.66 392.02 94.18 399.93 C 135.41 411.31 178.23 416.74 220.98 416.64 C 273.41 416.49 325.46 408.73 376.84 398.81 C 423.54 389.56 470.05 379.36 516.90 370.86 Z" />
<path fill="#ffffff" opacity="1.00" d=" M 743.54 393.91 C 751.19 396.70 759.89 396.28 767.20 392.66 C 767.23 437.12 763.01 481.73 752.51 524.99 C 737.89 585.11 710.91 643.06 669.64 689.57 C 646.92 715.05 619.92 736.82 589.84 753.01 C 558.69 769.80 524.21 780.10 489.10 784.11 C 478.44 785.42 467.70 785.79 456.99 786.55 C 447.31 787.12 437.66 785.99 428.00 785.55 C 388.26 783.03 348.84 772.87 313.53 754.30 C 283.52 738.57 256.50 717.32 233.61 692.38 C 192.18 647.07 164.73 590.24 149.36 531.12 C 141.86 502.13 137.24 472.44 134.89 442.60 C 141.60 445.04 149.21 445.32 155.89 442.64 C 156.98 442.28 157.99 441.44 159.20 441.61 L 158.70 442.59 C 162.02 484.79 170.54 526.74 185.48 566.40 C 196.86 596.44 211.80 625.24 230.84 651.17 C 248.72 675.57 270.37 697.25 295.01 714.83 C 324.25 735.90 358.12 750.39 393.49 757.26 C 430.83 764.41 469.58 764.51 506.92 757.33 C 541.43 750.63 574.50 736.60 603.23 716.32 C 629.28 698.06 652.02 675.20 670.62 649.41 C 690.53 621.82 705.97 591.13 717.41 559.12 C 736.23 506.25 743.52 449.85 743.54 393.91 Z" />
</g>
</svg>
