<?xml version="1.0" encoding="UTF-8" ?>
<!DOCTYPE svg PUBLIC "-//W3C//DTD SVG 1.1//EN" "http://www.w3.org/Graphics/SVG/1.1/DTD/svg11.dtd">
<svg width="1989pt" height="787pt" viewBox="0 0 1989 787" version="1.1" xmlns="http://www.w3.org/2000/svg">
<g id="#101828ff">
<path fill="#101828" opacity="1.00" d=" M 443.46 0.00 L 455.59 0.00 C 490.47 0.62 525.44 6.36 558.07 18.92 C 590.65 31.30 620.55 50.30 646.34 73.67 C 690.43 113.49 721.51 166.11 740.83 221.94 C 753.88 259.77 761.46 299.36 764.90 339.19 C 757.26 336.31 748.60 336.59 741.18 340.00 C 739.60 322.21 737.10 304.49 733.62 286.97 C 721.70 226.88 697.15 168.51 657.95 121.04 C 636.08 94.71 609.59 72.08 579.63 55.45 C 543.78 35.47 502.93 25.23 462.02 23.89 C 420.91 22.36 379.18 28.82 341.37 45.36 C 310.16 58.90 281.97 78.99 258.15 103.20 C 215.82 146.41 187.93 202.23 172.61 260.39 C 161.70 302.00 157.09 345.09 156.71 388.05 C 149.11 385.18 140.44 385.31 133.05 388.73 C 133.47 333.52 140.65 277.99 158.34 225.54 C 169.79 191.66 185.52 159.16 205.72 129.62 C 238.33 81.92 284.07 42.49 337.91 20.83 C 371.36 7.21 407.45 0.94 443.46 0.00 Z" />
<path fill="#101828" opacity="1.00" d=" M 1323.52 8.34 C 1331.40 8.28 1339.29 8.33 1347.18 8.31 C 1347.17 263.54 1347.19 518.77 1347.17 774.00 C 1339.28 774.02 1331.40 774.02 1323.52 774.00 C 1323.52 726.03 1323.54 678.07 1323.51 630.11 C 1322.47 630.12 1321.44 630.13 1320.43 630.14 C 1310.36 662.78 1294.22 693.78 1271.63 719.52 C 1248.47 746.18 1218.24 766.95 1184.46 777.57 C 1165.90 783.61 1146.38 785.76 1126.98 786.86 C 1119.25 787.08 1111.60 785.80 1103.92 785.33 C 1069.59 782.20 1036.17 769.33 1009.00 748.06 C 981.12 726.60 959.00 698.24 943.10 666.97 C 920.38 622.41 908.79 572.78 905.37 523.05 C 903.01 487.73 904.05 452.12 909.50 417.12 C 915.33 379.85 926.43 343.25 943.85 309.72 C 957.69 283.05 975.95 258.52 998.54 238.63 C 1021.63 217.93 1049.84 202.81 1080.18 196.12 C 1124.07 186.53 1171.53 190.82 1211.89 211.10 C 1244.26 227.15 1271.55 252.61 1291.28 282.75 C 1304.20 302.36 1313.60 324.10 1320.57 346.47 C 1321.29 346.47 1322.74 346.46 1323.47 346.46 C 1323.60 233.75 1323.49 121.04 1323.52 8.34 M 1107.51 215.73 C 1075.72 218.45 1044.85 230.88 1020.22 251.20 C 998.73 268.62 981.18 290.63 967.85 314.81 C 953.83 340.23 944.03 367.84 937.60 396.10 C 929.39 432.42 926.85 469.87 928.24 507.03 C 930.11 556.28 940.11 605.73 961.67 650.26 C 976.95 681.91 998.84 710.79 1027.21 731.81 C 1051.95 750.27 1082.31 760.63 1113.06 762.33 C 1136.99 763.77 1161.34 761.11 1183.98 753.01 C 1212.39 743.07 1236.92 724.13 1256.41 701.46 C 1278.09 676.32 1293.49 646.29 1304.12 614.97 C 1317.87 574.50 1323.48 531.61 1323.53 488.97 C 1323.60 446.03 1318.00 402.78 1304.00 362.06 C 1293.41 331.29 1278.20 301.79 1256.97 276.97 C 1237.89 254.65 1214.02 235.84 1186.32 225.55 C 1161.30 216.08 1134.05 213.35 1107.51 215.73 Z" />
<path fill="#101828" opacity="1.00" d=" M 1682.61 203.52 C 1718.12 190.60 1757.12 188.19 1794.21 194.85 C 1827.23 200.80 1858.32 215.66 1884.73 236.21 C 1911.47 257.01 1933.41 283.70 1949.76 313.31 C 1966.46 343.64 1977.69 376.89 1983.46 411.01 C 1986.80 430.30 1988.08 449.87 1989.00 469.41 L 1989.00 487.27 C 1839.15 487.32 1689.30 487.19 1539.45 487.33 C 1539.69 525.45 1545.01 563.70 1557.04 599.94 C 1567.48 631.65 1582.84 662.00 1604.25 687.74 C 1623.85 711.16 1647.86 731.37 1675.70 744.26 C 1706.57 758.67 1741.13 763.75 1774.99 762.56 C 1796.46 761.85 1818.04 758.72 1838.28 751.30 C 1850.65 746.81 1862.20 740.34 1873.35 733.40 C 1888.61 723.78 1902.80 712.30 1914.67 698.67 C 1925.71 686.11 1936.59 673.28 1945.31 658.96 C 1951.94 663.30 1958.56 667.71 1964.93 672.44 C 1954.00 690.16 1940.45 706.11 1926.10 721.15 C 1912.57 735.25 1896.77 747.03 1879.94 756.89 C 1868.29 763.63 1856.28 769.85 1843.56 774.30 C 1823.46 781.43 1802.22 784.85 1780.98 785.98 C 1771.02 787.09 1760.96 787.20 1751.01 786.00 C 1728.97 784.79 1707.02 780.90 1686.16 773.61 C 1658.61 764.14 1633.40 748.56 1611.69 729.24 C 1588.82 708.98 1569.98 684.36 1555.54 657.48 C 1537.38 623.83 1525.73 586.82 1520.15 549.04 C 1514.50 510.31 1514.32 470.76 1519.54 431.97 C 1524.38 396.75 1534.43 362.14 1550.22 330.24 C 1564.16 301.83 1582.41 275.36 1605.16 253.27 C 1627.30 231.75 1653.48 214.04 1682.61 203.52 M 1711.80 219.77 C 1679.98 227.13 1650.92 244.00 1626.88 265.86 C 1601.31 288.94 1581.42 317.84 1566.95 348.99 C 1550.24 384.84 1541.75 424.20 1539.92 463.62 C 1681.74 463.60 1823.55 463.73 1965.37 463.56 C 1964.30 428.95 1958.31 394.32 1945.90 361.93 C 1933.96 330.80 1916.76 301.46 1893.92 277.07 C 1871.86 253.57 1844.68 234.28 1813.87 224.20 C 1781.11 213.50 1745.36 212.01 1711.80 219.77 Z" />
<path fill="#101828" opacity="1.00" d=" M 497.86 374.41 C 545.86 365.39 594.11 356.72 642.98 354.32 C 685.71 351.83 728.77 355.37 770.57 364.58 C 803.89 371.96 836.15 384.23 865.78 401.19 C 876.72 407.35 887.27 414.22 897.11 422.03 C 889.83 417.70 882.93 412.66 875.43 408.65 C 840.71 389.20 802.07 377.37 762.87 371.18 C 719.69 363.83 675.56 363.11 631.99 366.99 C 586.73 371.21 541.97 379.41 497.51 388.68 C 451.15 398.34 404.94 408.81 358.15 416.23 C 314.11 423.16 269.66 428.82 225.01 428.58 C 159.73 427.38 93.81 412.66 36.75 380.23 C 24.06 372.92 11.85 364.64 0.98 354.78 C 1.85 355.29 2.69 355.84 3.51 356.45 C 29.09 376.88 59.69 390.07 90.99 399.02 C 129.34 409.95 169.14 415.63 208.99 416.53 C 263.13 417.62 317.01 410.12 370.09 400.12 C 412.74 391.82 455.18 382.52 497.86 374.41 Z" />
<path fill="#101828" opacity="1.00" d=" M 743.53 393.95 C 751.18 396.65 759.85 396.30 767.15 392.69 C 767.40 465.88 755.45 540.24 723.78 606.72 C 710.61 634.50 694.21 660.84 674.26 684.26 C 652.06 710.35 625.47 732.77 595.71 749.76 C 566.78 766.29 534.74 777.20 501.85 782.36 C 485.68 785.00 469.30 785.91 452.96 786.67 C 417.80 786.17 382.38 781.65 349.14 769.77 C 290.39 749.27 240.12 707.80 205.28 656.63 C 187.49 630.61 173.30 602.23 162.35 572.70 C 146.93 530.96 138.34 486.89 134.90 442.58 C 142.52 445.55 151.17 445.01 158.58 441.68 C 162.04 485.00 170.72 528.08 186.35 568.70 C 197.71 598.13 212.51 626.34 231.27 651.75 C 249.23 676.13 270.95 697.77 295.65 715.29 C 324.92 736.24 358.79 750.61 394.12 757.38 C 432.58 764.64 472.52 764.50 510.86 756.52 C 545.40 749.28 578.34 734.59 606.82 713.75 C 633.51 694.41 656.53 670.19 675.12 643.02 C 693.49 616.16 707.86 586.65 718.53 555.94 C 736.51 503.99 743.54 448.76 743.53 393.95 Z" />
</g>
</svg>
