<?xml version="1.0" encoding="UTF-8" ?>
<!DOCTYPE svg PUBLIC "-//W3C//DTD SVG 1.1//EN" "http://www.w3.org/Graphics/SVG/1.1/DTD/svg11.dtd">
<svg width="767pt" height="767pt" viewBox="0 0 767 767" version="1.1" xmlns="http://www.w3.org/2000/svg">
<g id="#ffffffff">
<path fill="#ffffff" opacity="1.00" d=" M 225.38 206.39 C 267.90 166.82 325.58 142.58 384.02 144.28 C 425.36 145.18 465.85 159.17 500.32 181.73 C 517.73 192.81 533.24 206.66 547.09 221.92 C 577.70 255.20 598.94 297.16 606.84 341.73 C 579.30 338.87 551.48 338.85 523.91 341.36 C 514.44 341.73 505.08 343.50 495.62 343.82 C 494.57 323.52 492.41 303.27 489.08 283.21 C 485.96 264.20 481.67 245.29 474.70 227.29 C 468.11 210.54 458.68 194.82 446.32 181.68 C 430.91 165.57 409.36 155.56 387.08 154.33 C 364.23 152.43 340.37 157.90 321.92 171.86 C 307.58 182.05 297.28 196.85 289.25 212.28 C 276.08 238.35 269.87 267.28 265.62 295.99 C 261.34 326.28 259.54 356.86 259.58 387.44 C 226.99 392.29 193.94 393.72 161.03 392.26 C 156.01 391.70 150.93 391.79 145.94 390.92 C 145.75 379.31 146.52 367.67 147.67 356.12 C 151.66 323.68 162.81 292.32 179.06 264.04 C 191.94 242.96 206.97 222.96 225.38 206.39 Z" />
<path fill="#ffffff" opacity="1.00" d=" M 0.90 350.16 C 4.49 352.50 7.65 355.43 11.23 357.79 C 38.15 376.80 69.99 387.35 101.92 394.32 C 135.08 401.42 169.11 404.33 202.99 403.03 C 241.69 401.88 280.04 395.96 318.03 388.79 C 361.68 380.19 405.12 370.54 448.95 362.85 C 481.70 356.89 514.72 351.94 547.99 350.32 C 585.63 348.17 623.54 351.55 660.26 360.06 C 680.80 365.01 700.88 372.01 719.89 381.26 C 736.08 389.34 752.02 398.31 765.92 410.00 C 736.77 388.59 702.26 375.61 667.14 367.90 C 639.45 362.38 611.27 358.96 583.00 359.20 C 558.53 358.95 534.09 361.00 509.86 364.34 C 465.04 370.19 420.91 380.17 376.72 389.47 C 332.91 398.74 288.74 406.66 244.14 410.95 C 224.83 412.73 205.43 413.95 186.02 413.34 C 144.32 411.94 102.64 403.92 63.97 388.04 C 41.40 378.37 19.21 366.74 0.90 350.16 Z" />
<path fill="#ffffff" opacity="1.00" d=" M 497.40 377.20 C 534.45 371.29 572.11 367.75 609.65 370.01 C 611.41 385.99 609.64 402.11 607.52 417.97 C 601.70 459.04 584.12 498.08 558.75 530.76 C 537.15 558.70 509.20 581.51 477.93 597.83 C 439.14 617.69 394.37 626.85 351.03 620.51 C 327.99 617.26 305.21 611.09 284.35 600.64 C 249.01 583.61 218.28 557.51 194.99 526.00 C 172.15 494.91 155.76 458.94 148.55 420.98 C 180.87 424.35 213.56 425.00 245.90 421.54 C 250.83 421.31 255.67 420.25 260.60 420.02 C 261.10 435.97 262.77 451.87 264.94 467.68 C 268.29 490.54 272.54 513.46 280.70 535.17 C 287.21 553.63 297.16 571.07 310.78 585.22 C 323.02 598.10 339.26 607.02 356.69 610.49 C 373.81 613.83 391.81 613.40 408.60 608.48 C 427.07 603.09 443.23 591.02 454.74 575.72 C 465.23 561.67 472.80 545.60 478.15 528.94 C 485.77 505.84 489.82 481.75 492.98 457.69 C 496.32 431.00 497.20 404.08 497.40 377.20 Z" />
</g>
</svg>
